<svg xmlns="http://www.w3.org/2000/svg" width="240" height="160" viewBox="0 0 240 160">
  <rect width="100%" height="100%" fill="#fffdfb" />
  <g transform="translate(30,36)" fill="#2b2b2b">
    <path d="M8 28 q24 -20 48 0 q24 -20 48 0" stroke="#111" stroke-width="2" fill="none"/>
    <path d="M8 38 q24 -16 48 0 q24 -16 48 0" stroke="#111" stroke-width="2" fill="none"/>
  </g>
  <text x="120" y="144" text-anchor="middle" font-family="Arial" font-size="12" fill="#222">False Eyelashes</text>
</svg>
<svg xmlns="http://www.w3.org/2000/svg" width="240" height="160" viewBox="0 0 240 160">
  <rect width="100%" height="100%" fill="#fffdfb" />
  <g transform="translate(30,36)" fill="#2b2b2b">
    <path d="M8 28 q24 -20 48 0 q24 -20 48 0" stroke="#111" stroke-width="2" fill="none"/>
    <path d="M8 38 q24 -16 48 0 q24 -16 48 0" stroke="#111" stroke-width="2" fill="none"/>
  </g>
  <text x="120" y="144" text-anchor="middle" font-family="Arial" font-size="12" fill="#222">False Eyelashes</text>
</svg>
<svg xmlns="http://www.w3.org/2000/svg" width="240" height="160">
  <rect width="100%" height="100%" fill="#fff9fb"/>
  <text x="50%" y="50%" dominant-baseline="middle" text-anchor="middle" font-family="Arial" font-size="18" fill="#1e1e1e">False Lashes</text>
</svg>
